<?xml version="1.0" standalone="no"?>
<!DOCTYPE svg PUBLIC "-//W3C//DTD SVG 20010904//EN"
 "http://www.w3.org/TR/2001/REC-SVG-20010904/DTD/svg10.dtd">
<svg version="1.0" xmlns="http://www.w3.org/2000/svg"
 width="400px" height="640.000000pt" viewBox="0 0 1280.000000 640.000000"
 preserveAspectRatio="xMidYMid meet">
<metadata>
Created by potrace 1.15, written by Peter Selinger 2001-2017
</metadata>
<g transform="translate(0.000000,640.000000) scale(0.100000,-0.100000)"
fill="grey" stroke="none">
<path d="M5755 5163 c-2248 -63 -3690 -320 -4992 -889 l-113 -49 -214 -215
c-194 -196 -217 -222 -250 -292 -58 -121 -69 -191 -63 -413 4 -169 7 -200 31
-279 226 -753 1397 -1240 3581 -1490 362 -42 748 -64 1870 -108 424 -17 1370
-17 1635 0 1058 67 1766 140 2535 262 454 73 738 130 1040 211 705 189 1180
421 1466 716 189 195 266 369 274 618 9 288 -33 460 -159 649 -52 78 -166 199
-251 267 -199 159 -550 328 -903 435 -479 145 -1038 248 -2102 389 -272 36
-603 81 -735 100 -332 46 -416 52 -1115 75 -543 18 -1172 24 -1535 13z"/>
</g>
</svg>
