<svg width="622" height="153" viewBox="0 0 622 153" fill="none" xmlns="http://www.w3.org/2000/svg">
<mask id="path-1-outside-1_115_4" maskUnits="userSpaceOnUse" x="0" y="58" width="622" height="95" fill="black">
<rect fill="white" y="58" width="622" height="95"/>
<path d="M25.3699 148.339C16.1904 148.339 9.06708 144.558 4 136.996V131.049C5.98277 135.454 8.84677 138.905 12.592 141.401C16.4107 143.897 20.9637 145.146 26.2511 145.146C29.9229 145.146 33.3009 144.338 36.3853 142.723C39.543 141.108 42.0398 138.832 43.8757 135.895C45.7116 132.958 46.6296 129.581 46.6296 125.763C46.6296 122.313 46.0421 119.339 44.8671 116.843C43.6921 114.347 41.7461 111.961 39.0289 109.685C36.3118 107.335 32.383 104.582 27.2425 101.425L23.7176 99.2228C20.4864 97.2405 17.8794 95.4785 15.8966 93.9367C13.9139 92.3949 12.1881 90.5962 10.7194 88.5405C8.81006 85.6772 7.85539 82.3734 7.85539 78.6291C7.85539 73.6367 9.47098 69.7456 12.7022 66.9557C15.9333 64.1658 20.0458 62.7709 25.0394 62.7709C31.7955 62.7709 37.1563 65.2671 41.1219 70.2595V75.8759C39.4328 72.7924 37.1196 70.3696 34.1822 68.6076C31.2447 66.8456 28.0136 65.9646 24.4886 65.9646C20.8168 65.9646 17.7325 67.1025 15.2357 69.3785C12.7389 71.6544 11.4905 74.7013 11.4905 78.519C11.4905 82.2633 12.6287 85.4937 14.9052 88.2101C17.2552 90.8532 21.184 93.7532 26.6917 96.9101C33.4478 100.875 38.6985 104.472 42.4437 107.703C45.0874 110.125 46.9967 112.805 48.1717 115.742C49.4201 118.678 50.0443 121.946 50.0443 125.543C50.0443 130.095 48.9795 134.096 46.8499 137.547C44.7202 140.997 41.7828 143.677 38.0376 145.586C34.2923 147.422 30.0698 148.339 25.3699 148.339Z"/>
<path d="M160.193 64.2025V146.797H156.558V69.4886L117.564 148.339L78.7894 68.4975V146.797H75.1543V64.2025H80.3315L117.564 140.851L155.126 64.2025H160.193Z"/>
<path d="M229.123 149C221.412 149 214.252 146.981 207.643 142.943C201.034 138.905 195.783 133.546 191.891 126.865C188.072 120.11 186.163 112.878 186.163 105.17C186.163 97.5342 188.109 90.4127 192.001 83.8051C195.893 77.124 201.144 71.838 207.753 67.9468C214.362 63.9823 221.522 62 229.233 62C237.017 62 244.177 63.9456 250.713 67.8367C257.249 71.7278 262.426 77.0139 266.245 83.6949C270.137 90.3025 272.083 97.4608 272.083 105.17C272.083 113.099 270.137 120.441 266.245 127.195C262.426 133.876 257.212 139.199 250.603 143.163C244.067 147.054 236.907 149 229.123 149ZM229.123 145.806C236.173 145.806 242.708 144.008 248.73 140.41C254.752 136.739 259.525 131.82 263.05 125.653C266.649 119.413 268.448 112.658 268.448 105.39C268.448 98.1949 266.685 91.5139 263.16 85.3468C259.635 79.1797 254.862 74.2975 248.84 70.7C242.819 67.0291 236.283 65.1937 229.233 65.1937C222.11 65.1937 215.537 67.0291 209.515 70.7C203.494 74.2975 198.684 79.1797 195.085 85.3468C191.56 91.5139 189.798 98.1949 189.798 105.39C189.798 112.658 191.56 119.413 195.085 125.653C198.684 131.82 203.494 136.739 209.515 140.41C215.537 144.008 222.073 145.806 229.123 145.806Z"/>
<path d="M275.517 149C267.806 149 260.646 146.981 254.037 142.943C247.428 138.905 242.177 133.546 238.285 126.865C234.466 120.11 232.557 112.878 232.557 105.17C232.557 97.5342 234.503 90.4127 238.395 83.8051C242.287 77.124 247.538 71.838 254.147 67.9468C260.756 63.9823 267.916 62 275.627 62C283.411 62 290.571 63.9456 297.107 67.8367C303.643 71.7278 308.82 77.0139 312.639 83.6949C316.531 90.3025 318.477 97.4608 318.477 105.17C318.477 113.099 316.531 120.441 312.639 127.195C308.82 133.876 303.606 139.199 296.997 143.163C290.461 147.054 283.301 149 275.517 149ZM275.517 145.806C282.567 145.806 289.102 144.008 295.124 140.41C301.146 136.739 305.919 131.82 309.444 125.653C313.043 119.413 314.842 112.658 314.842 105.39C314.842 98.1949 313.079 91.5139 309.554 85.3468C306.029 79.1797 301.256 74.2975 295.234 70.7C289.213 67.0291 282.677 65.1937 275.627 65.1937C268.504 65.1937 261.931 67.0291 255.909 70.7C249.888 74.2975 245.078 79.1797 241.479 85.3468C237.954 91.5139 236.192 98.1949 236.192 105.39C236.192 112.658 237.954 119.413 241.479 125.653C245.078 131.82 249.888 136.739 255.909 140.41C261.931 144.008 268.467 145.806 275.517 145.806Z"/>
<path d="M349.398 67.3962H330.342V64.2025H371.87V67.3962H353.033V146.797H349.398V67.3962Z"/>
<path d="M394.996 64.2025H398.631V112.108H455.25V64.2025H458.885V146.797H455.25V115.301H398.631V146.797H394.996V64.2025Z"/>
<path d="M488.988 64.2025H492.623V146.797H488.988V64.2025Z"/>
<path d="M522.714 64.2025H552.346V67.3962H526.349V112.328H548.05V115.522H526.349V143.604H552.346V146.797H522.714V64.2025Z"/>
<path d="M593.326 148.339C584.146 148.339 577.023 144.558 571.956 136.996V131.049C573.938 135.454 576.802 138.905 580.548 141.401C584.366 143.897 588.919 145.146 594.207 145.146C597.879 145.146 601.257 144.338 604.341 142.723C607.499 141.108 609.996 138.832 611.831 135.895C613.667 132.958 614.585 129.581 614.585 125.763C614.585 122.313 613.998 119.339 612.823 116.843C611.648 114.347 609.702 111.961 606.985 109.685C604.268 107.335 600.339 104.582 595.198 101.425L591.673 99.2228C588.442 97.2405 585.835 95.4785 583.852 93.9367C581.87 92.3949 580.144 90.5962 578.675 88.5405C576.766 85.6772 575.811 82.3734 575.811 78.6291C575.811 73.6367 577.427 69.7456 580.658 66.9557C583.889 64.1658 588.001 62.7709 592.995 62.7709C599.751 62.7709 605.112 65.2671 609.078 70.2595V75.8759C607.389 72.7924 605.075 70.3696 602.138 68.6076C599.2 66.8456 595.969 65.9646 592.444 65.9646C588.772 65.9646 585.688 67.1025 583.191 69.3785C580.695 71.6544 579.446 74.7013 579.446 78.519C579.446 82.2633 580.584 85.4937 582.861 88.2101C585.211 90.8532 589.14 93.7532 594.647 96.9101C601.404 100.875 606.654 104.472 610.399 107.703C613.043 110.125 614.952 112.805 616.127 115.742C617.376 118.678 618 121.946 618 125.543C618 130.095 616.935 134.096 614.806 137.547C612.676 140.997 609.738 143.677 605.993 145.586C602.248 147.422 598.025 148.339 593.326 148.339Z"/>
</mask>
<path d="M25.3699 148.339C16.1904 148.339 9.06708 144.558 4 136.996V131.049C5.98277 135.454 8.84677 138.905 12.592 141.401C16.4107 143.897 20.9637 145.146 26.2511 145.146C29.9229 145.146 33.3009 144.338 36.3853 142.723C39.543 141.108 42.0398 138.832 43.8757 135.895C45.7116 132.958 46.6296 129.581 46.6296 125.763C46.6296 122.313 46.0421 119.339 44.8671 116.843C43.6921 114.347 41.7461 111.961 39.0289 109.685C36.3118 107.335 32.383 104.582 27.2425 101.425L23.7176 99.2228C20.4864 97.2405 17.8794 95.4785 15.8966 93.9367C13.9139 92.3949 12.1881 90.5962 10.7194 88.5405C8.81006 85.6772 7.85539 82.3734 7.85539 78.6291C7.85539 73.6367 9.47098 69.7456 12.7022 66.9557C15.9333 64.1658 20.0458 62.7709 25.0394 62.7709C31.7955 62.7709 37.1563 65.2671 41.1219 70.2595V75.8759C39.4328 72.7924 37.1196 70.3696 34.1822 68.6076C31.2447 66.8456 28.0136 65.9646 24.4886 65.9646C20.8168 65.9646 17.7325 67.1025 15.2357 69.3785C12.7389 71.6544 11.4905 74.7013 11.4905 78.519C11.4905 82.2633 12.6287 85.4937 14.9052 88.2101C17.2552 90.8532 21.184 93.7532 26.6917 96.9101C33.4478 100.875 38.6985 104.472 42.4437 107.703C45.0874 110.125 46.9967 112.805 48.1717 115.742C49.4201 118.678 50.0443 121.946 50.0443 125.543C50.0443 130.095 48.9795 134.096 46.8499 137.547C44.7202 140.997 41.7828 143.677 38.0376 145.586C34.2923 147.422 30.0698 148.339 25.3699 148.339Z" fill="#161E29"/>
<path d="M160.193 64.2025V146.797H156.558V69.4886L117.564 148.339L78.7894 68.4975V146.797H75.1543V64.2025H80.3315L117.564 140.851L155.126 64.2025H160.193Z" fill="#161E29"/>
<path d="M229.123 149C221.412 149 214.252 146.981 207.643 142.943C201.034 138.905 195.783 133.546 191.891 126.865C188.072 120.11 186.163 112.878 186.163 105.17C186.163 97.5342 188.109 90.4127 192.001 83.8051C195.893 77.124 201.144 71.838 207.753 67.9468C214.362 63.9823 221.522 62 229.233 62C237.017 62 244.177 63.9456 250.713 67.8367C257.249 71.7278 262.426 77.0139 266.245 83.6949C270.137 90.3025 272.083 97.4608 272.083 105.17C272.083 113.099 270.137 120.441 266.245 127.195C262.426 133.876 257.212 139.199 250.603 143.163C244.067 147.054 236.907 149 229.123 149ZM229.123 145.806C236.173 145.806 242.708 144.008 248.73 140.41C254.752 136.739 259.525 131.82 263.05 125.653C266.649 119.413 268.448 112.658 268.448 105.39C268.448 98.1949 266.685 91.5139 263.16 85.3468C259.635 79.1797 254.862 74.2975 248.84 70.7C242.819 67.0291 236.283 65.1937 229.233 65.1937C222.11 65.1937 215.537 67.0291 209.515 70.7C203.494 74.2975 198.684 79.1797 195.085 85.3468C191.56 91.5139 189.798 98.1949 189.798 105.39C189.798 112.658 191.56 119.413 195.085 125.653C198.684 131.82 203.494 136.739 209.515 140.41C215.537 144.008 222.073 145.806 229.123 145.806Z" fill="#161E29"/>
<path d="M275.517 149C267.806 149 260.646 146.981 254.037 142.943C247.428 138.905 242.177 133.546 238.285 126.865C234.466 120.11 232.557 112.878 232.557 105.17C232.557 97.5342 234.503 90.4127 238.395 83.8051C242.287 77.124 247.538 71.838 254.147 67.9468C260.756 63.9823 267.916 62 275.627 62C283.411 62 290.571 63.9456 297.107 67.8367C303.643 71.7278 308.82 77.0139 312.639 83.6949C316.531 90.3025 318.477 97.4608 318.477 105.17C318.477 113.099 316.531 120.441 312.639 127.195C308.82 133.876 303.606 139.199 296.997 143.163C290.461 147.054 283.301 149 275.517 149ZM275.517 145.806C282.567 145.806 289.102 144.008 295.124 140.41C301.146 136.739 305.919 131.82 309.444 125.653C313.043 119.413 314.842 112.658 314.842 105.39C314.842 98.1949 313.079 91.5139 309.554 85.3468C306.029 79.1797 301.256 74.2975 295.234 70.7C289.213 67.0291 282.677 65.1937 275.627 65.1937C268.504 65.1937 261.931 67.0291 255.909 70.7C249.888 74.2975 245.078 79.1797 241.479 85.3468C237.954 91.5139 236.192 98.1949 236.192 105.39C236.192 112.658 237.954 119.413 241.479 125.653C245.078 131.82 249.888 136.739 255.909 140.41C261.931 144.008 268.467 145.806 275.517 145.806Z" fill="#161E29"/>
<path d="M349.398 67.3962H330.342V64.2025H371.87V67.3962H353.033V146.797H349.398V67.3962Z" fill="#161E29"/>
<path d="M394.996 64.2025H398.631V112.108H455.25V64.2025H458.885V146.797H455.25V115.301H398.631V146.797H394.996V64.2025Z" fill="#161E29"/>
<path d="M488.988 64.2025H492.623V146.797H488.988V64.2025Z" fill="#161E29"/>
<path d="M522.714 64.2025H552.346V67.3962H526.349V112.328H548.05V115.522H526.349V143.604H552.346V146.797H522.714V64.2025Z" fill="#161E29"/>
<path d="M593.326 148.339C584.146 148.339 577.023 144.558 571.956 136.996V131.049C573.938 135.454 576.802 138.905 580.548 141.401C584.366 143.897 588.919 145.146 594.207 145.146C597.879 145.146 601.257 144.338 604.341 142.723C607.499 141.108 609.996 138.832 611.831 135.895C613.667 132.958 614.585 129.581 614.585 125.763C614.585 122.313 613.998 119.339 612.823 116.843C611.648 114.347 609.702 111.961 606.985 109.685C604.268 107.335 600.339 104.582 595.198 101.425L591.673 99.2228C588.442 97.2405 585.835 95.4785 583.852 93.9367C581.87 92.3949 580.144 90.5962 578.675 88.5405C576.766 85.6772 575.811 82.3734 575.811 78.6291C575.811 73.6367 577.427 69.7456 580.658 66.9557C583.889 64.1658 588.001 62.7709 592.995 62.7709C599.751 62.7709 605.112 65.2671 609.078 70.2595V75.8759C607.389 72.7924 605.075 70.3696 602.138 68.6076C599.2 66.8456 595.969 65.9646 592.444 65.9646C588.772 65.9646 585.688 67.1025 583.191 69.3785C580.695 71.6544 579.446 74.7013 579.446 78.519C579.446 82.2633 580.584 85.4937 582.861 88.2101C585.211 90.8532 589.14 93.7532 594.647 96.9101C601.404 100.875 606.654 104.472 610.399 107.703C613.043 110.125 614.952 112.805 616.127 115.742C617.376 118.678 618 121.946 618 125.543C618 130.095 616.935 134.096 614.806 137.547C612.676 140.997 609.738 143.677 605.993 145.586C602.248 147.422 598.025 148.339 593.326 148.339Z" fill="#161E29"/>
<path d="M25.3699 148.339C16.1904 148.339 9.06708 144.558 4 136.996V131.049C5.98277 135.454 8.84677 138.905 12.592 141.401C16.4107 143.897 20.9637 145.146 26.2511 145.146C29.9229 145.146 33.3009 144.338 36.3853 142.723C39.543 141.108 42.0398 138.832 43.8757 135.895C45.7116 132.958 46.6296 129.581 46.6296 125.763C46.6296 122.313 46.0421 119.339 44.8671 116.843C43.6921 114.347 41.7461 111.961 39.0289 109.685C36.3118 107.335 32.383 104.582 27.2425 101.425L23.7176 99.2228C20.4864 97.2405 17.8794 95.4785 15.8966 93.9367C13.9139 92.3949 12.1881 90.5962 10.7194 88.5405C8.81006 85.6772 7.85539 82.3734 7.85539 78.6291C7.85539 73.6367 9.47098 69.7456 12.7022 66.9557C15.9333 64.1658 20.0458 62.7709 25.0394 62.7709C31.7955 62.7709 37.1563 65.2671 41.1219 70.2595V75.8759C39.4328 72.7924 37.1196 70.3696 34.1822 68.6076C31.2447 66.8456 28.0136 65.9646 24.4886 65.9646C20.8168 65.9646 17.7325 67.1025 15.2357 69.3785C12.7389 71.6544 11.4905 74.7013 11.4905 78.519C11.4905 82.2633 12.6287 85.4937 14.9052 88.2101C17.2552 90.8532 21.184 93.7532 26.6917 96.9101C33.4478 100.875 38.6985 104.472 42.4437 107.703C45.0874 110.125 46.9967 112.805 48.1717 115.742C49.4201 118.678 50.0443 121.946 50.0443 125.543C50.0443 130.095 48.9795 134.096 46.8499 137.547C44.7202 140.997 41.7828 143.677 38.0376 145.586C34.2923 147.422 30.0698 148.339 25.3699 148.339Z" stroke="#161E29" stroke-width="8" stroke-linejoin="round" mask="url(#path-1-outside-1_115_4)"/>
<path d="M160.193 64.2025V146.797H156.558V69.4886L117.564 148.339L78.7894 68.4975V146.797H75.1543V64.2025H80.3315L117.564 140.851L155.126 64.2025H160.193Z" stroke="#161E29" stroke-width="8" stroke-linejoin="round" mask="url(#path-1-outside-1_115_4)"/>
<path d="M229.123 149C221.412 149 214.252 146.981 207.643 142.943C201.034 138.905 195.783 133.546 191.891 126.865C188.072 120.11 186.163 112.878 186.163 105.17C186.163 97.5342 188.109 90.4127 192.001 83.8051C195.893 77.124 201.144 71.838 207.753 67.9468C214.362 63.9823 221.522 62 229.233 62C237.017 62 244.177 63.9456 250.713 67.8367C257.249 71.7278 262.426 77.0139 266.245 83.6949C270.137 90.3025 272.083 97.4608 272.083 105.17C272.083 113.099 270.137 120.441 266.245 127.195C262.426 133.876 257.212 139.199 250.603 143.163C244.067 147.054 236.907 149 229.123 149ZM229.123 145.806C236.173 145.806 242.708 144.008 248.73 140.41C254.752 136.739 259.525 131.82 263.05 125.653C266.649 119.413 268.448 112.658 268.448 105.39C268.448 98.1949 266.685 91.5139 263.16 85.3468C259.635 79.1797 254.862 74.2975 248.84 70.7C242.819 67.0291 236.283 65.1937 229.233 65.1937C222.11 65.1937 215.537 67.0291 209.515 70.7C203.494 74.2975 198.684 79.1797 195.085 85.3468C191.56 91.5139 189.798 98.1949 189.798 105.39C189.798 112.658 191.56 119.413 195.085 125.653C198.684 131.82 203.494 136.739 209.515 140.41C215.537 144.008 222.073 145.806 229.123 145.806Z" stroke="#161E29" stroke-width="8" stroke-linejoin="round" mask="url(#path-1-outside-1_115_4)"/>
<path d="M275.517 149C267.806 149 260.646 146.981 254.037 142.943C247.428 138.905 242.177 133.546 238.285 126.865C234.466 120.11 232.557 112.878 232.557 105.17C232.557 97.5342 234.503 90.4127 238.395 83.8051C242.287 77.124 247.538 71.838 254.147 67.9468C260.756 63.9823 267.916 62 275.627 62C283.411 62 290.571 63.9456 297.107 67.8367C303.643 71.7278 308.82 77.0139 312.639 83.6949C316.531 90.3025 318.477 97.4608 318.477 105.17C318.477 113.099 316.531 120.441 312.639 127.195C308.82 133.876 303.606 139.199 296.997 143.163C290.461 147.054 283.301 149 275.517 149ZM275.517 145.806C282.567 145.806 289.102 144.008 295.124 140.41C301.146 136.739 305.919 131.82 309.444 125.653C313.043 119.413 314.842 112.658 314.842 105.39C314.842 98.1949 313.079 91.5139 309.554 85.3468C306.029 79.1797 301.256 74.2975 295.234 70.7C289.213 67.0291 282.677 65.1937 275.627 65.1937C268.504 65.1937 261.931 67.0291 255.909 70.7C249.888 74.2975 245.078 79.1797 241.479 85.3468C237.954 91.5139 236.192 98.1949 236.192 105.39C236.192 112.658 237.954 119.413 241.479 125.653C245.078 131.82 249.888 136.739 255.909 140.41C261.931 144.008 268.467 145.806 275.517 145.806Z" stroke="#161E29" stroke-width="8" stroke-linejoin="round" mask="url(#path-1-outside-1_115_4)"/>
<path d="M349.398 67.3962H330.342V64.2025H371.87V67.3962H353.033V146.797H349.398V67.3962Z" stroke="#161E29" stroke-width="8" stroke-linejoin="round" mask="url(#path-1-outside-1_115_4)"/>
<path d="M394.996 64.2025H398.631V112.108H455.25V64.2025H458.885V146.797H455.25V115.301H398.631V146.797H394.996V64.2025Z" stroke="#161E29" stroke-width="8" stroke-linejoin="round" mask="url(#path-1-outside-1_115_4)"/>
<path d="M488.988 64.2025H492.623V146.797H488.988V64.2025Z" stroke="#161E29" stroke-width="8" stroke-linejoin="round" mask="url(#path-1-outside-1_115_4)"/>
<path d="M522.714 64.2025H552.346V67.3962H526.349V112.328H548.05V115.522H526.349V143.604H552.346V146.797H522.714V64.2025Z" stroke="#161E29" stroke-width="8" stroke-linejoin="round" mask="url(#path-1-outside-1_115_4)"/>
<path d="M593.326 148.339C584.146 148.339 577.023 144.558 571.956 136.996V131.049C573.938 135.454 576.802 138.905 580.548 141.401C584.366 143.897 588.919 145.146 594.207 145.146C597.879 145.146 601.257 144.338 604.341 142.723C607.499 141.108 609.996 138.832 611.831 135.895C613.667 132.958 614.585 129.581 614.585 125.763C614.585 122.313 613.998 119.339 612.823 116.843C611.648 114.347 609.702 111.961 606.985 109.685C604.268 107.335 600.339 104.582 595.198 101.425L591.673 99.2228C588.442 97.2405 585.835 95.4785 583.852 93.9367C581.87 92.3949 580.144 90.5962 578.675 88.5405C576.766 85.6772 575.811 82.3734 575.811 78.6291C575.811 73.6367 577.427 69.7456 580.658 66.9557C583.889 64.1658 588.001 62.7709 592.995 62.7709C599.751 62.7709 605.112 65.2671 609.078 70.2595V75.8759C607.389 72.7924 605.075 70.3696 602.138 68.6076C599.2 66.8456 595.969 65.9646 592.444 65.9646C588.772 65.9646 585.688 67.1025 583.191 69.3785C580.695 71.6544 579.446 74.7013 579.446 78.519C579.446 82.2633 580.584 85.4937 582.861 88.2101C585.211 90.8532 589.14 93.7532 594.647 96.9101C601.404 100.875 606.654 104.472 610.399 107.703C613.043 110.125 614.952 112.805 616.127 115.742C617.376 118.678 618 121.946 618 125.543C618 130.095 616.935 134.096 614.806 137.547C612.676 140.997 609.738 143.677 605.993 145.586C602.248 147.422 598.025 148.339 593.326 148.339Z" stroke="#161E29" stroke-width="8" stroke-linejoin="round" mask="url(#path-1-outside-1_115_4)"/>
<circle cx="275.5" cy="105.5" r="41" stroke="#DD2D50" stroke-width="13"/>
<circle cx="229.5" cy="105.5" r="41" stroke="#DD2D50" stroke-width="13"/>
<path d="M277.77 28.3941C274.659 34.4437 266.151 46.395 264.883 53.1791C264.523 55.1048 278.307 54.3366 286.185 43.2032C292.579 34.167 293.438 15.3847 292.842 9C252.901 14.7005 256.895 53.1791 259.557 47.4786C261.596 43.1148 271.924 33.1836 277.476 28.1732C277.638 28.0275 277.869 28.2007 277.77 28.3941Z" fill="#0FA44D"/>
<path d="M226.897 23.4846C230.881 30.8055 242.271 45.6222 243.954 53.9967C244.427 56.3503 226.311 55.4114 215.957 41.8039C207.553 30.7597 206.424 7.80358 207.208 0C259.702 6.96732 254.453 53.9967 250.953 47.0294C248.248 41.6432 234.431 29.317 227.188 23.254C227.022 23.115 226.793 23.2944 226.897 23.4846Z" fill="#0FA44D"/>
</svg>
